<svg width="32" height="32" viewBox="0 0 32 32" fill="none" xmlns="http://www.w3.org/2000/svg">
<path fill-rule="evenodd" clip-rule="evenodd" d="M8.97461 4C6.21319 4 3.97461 6.23857 3.97461 9V21.6667C3.97461 24.4281 6.21319 26.6667 8.97461 26.6667H14.9097V17.2821H12.5278V13.9032H14.9097V11.0172C14.9097 8.74931 16.3167 6.66667 19.5587 6.66667C20.8714 6.66667 21.842 6.79777 21.842 6.79777L21.7655 9.95309C21.7655 9.95309 20.7756 9.94305 19.6954 9.94305C18.5263 9.94305 18.339 10.5043 18.339 11.436V13.9032H21.8585L21.7053 17.2821H18.339V26.6667H21.4459C24.2073 26.6667 26.4459 24.4281 26.4459 21.6667V9C26.4459 6.23858 24.2073 4 21.4459 4H8.97461Z" fill="#6DACF6"/>
</svg>
