<svg width="44" height="34" viewBox="0 0 44 34" fill="none" xmlns="http://www.w3.org/2000/svg">
<mask id="mask0_26_1310" style="mask-type:alpha" maskUnits="userSpaceOnUse" x="0" y="0" width="44" height="34">
<rect y="0.5" width="44" height="33" fill="white"/>
</mask>
<g mask="url(#mask0_26_1310)">
<path fill-rule="evenodd" clip-rule="evenodd" d="M0 0.5H44V33.5H0V0.5Z" fill="#E31D1C"/>
<path fill-rule="evenodd" clip-rule="evenodd" d="M0 3.25V6H44V3.25H0ZM0 8.74995V11.4999H44V8.74995H0ZM0 17V14.25H44V17H0ZM0 19.7498V22.4998H44V19.7498H0ZM0 27.9999V25.2499H44V27.9999H0ZM0 33.4999V30.7499H44V33.4999H0Z" fill="#F7FCFF"/>
<rect y="0.5" width="24.75" height="19.25" fill="#2E42A5"/>
<path fill-rule="evenodd" clip-rule="evenodd" d="M2.8601 6.47781L4.31738 5.4627L5.44766 6.27641H4.80779L6.10213 7.42123L5.66495 9.02643H4.98007L4.31521 7.55216L3.7482 9.02643H2.05762L3.35195 10.1712L2.85996 11.9777L4.31724 10.9626L5.44767 11.7764H4.80779L6.10213 12.9213L5.66495 14.5265H4.98007L4.31521 13.0522L3.7482 14.5265H2.05762L3.35195 15.6713L2.85996 17.4778L4.31724 16.4626L5.72726 17.4778L5.28888 15.6713L6.42124 14.5265H5.89909L7.06742 13.7126L8.19785 14.5265H7.55765L8.85198 15.6713L8.35999 17.4778L9.81727 16.4626L11.2273 17.4778L10.7889 15.6713L11.9213 14.5265H11.3991L12.5674 13.7126L13.6979 14.5265H13.0577L14.352 15.6713L13.86 17.4778L15.3173 16.4626L16.7273 17.4778L16.2889 15.6713L17.4213 14.5265H16.8988L18.0672 13.7126L19.1976 14.5265H18.5577L19.852 15.6713L19.36 17.4778L20.8173 16.4626L22.2274 17.4778L21.789 15.6713L22.9213 14.5265H21.4802L20.8153 13.0522L20.2483 14.5265H19.4283L19.0388 12.9213L20.1712 11.7764H19.649L20.8173 10.9626L22.2274 11.9777L21.789 10.1712L22.9213 9.02643H21.4802L20.8153 7.55216L20.2483 9.02643H19.4283L19.0388 7.42123L20.1712 6.27641H19.6492L20.8173 5.46274L22.2274 6.47785L21.789 4.67138L22.9213 3.52656H21.4802L20.8153 2.05229L20.2483 3.52656H18.5577L19.852 4.67138L19.4149 6.27641H18.73L18.0651 4.80215L17.4981 6.27641H16.6784L16.2889 4.67138L17.4213 3.52656H15.9801L15.3153 2.05229L14.7483 3.52656H13.0577L14.352 4.67138L13.9149 6.27641H13.2303L12.5654 4.80215L11.9984 6.27641H11.1784L10.7889 4.67138L11.9213 3.52656H10.4801L9.81523 2.05229L9.24823 3.52656H7.55765L8.85198 4.67138L8.41485 6.27641H7.73024L7.06538 4.80215L6.49837 6.27641H5.67853L5.28902 4.67133L6.42138 3.52651H4.98021L4.31535 2.05225L3.74834 3.52651H2.05776L3.3521 4.67133L2.8601 6.47781ZM19.4149 11.7764L19.852 10.1712L18.5577 9.02643H19.1976L18.0672 8.2126L16.8988 9.02643H17.4213L16.2889 10.1712L16.6785 11.7764H17.4981L18.0651 10.3022L18.73 11.7764H19.4149ZM16.4477 11.7764L15.3173 10.9626L14.149 11.7764H14.6714L13.5391 12.9213L13.9286 14.5265H14.7483L15.3153 13.0522L15.9801 14.5265H16.6647L17.1019 12.9213L15.8075 11.7764H16.4477ZM11.6022 12.9213L11.165 14.5265H10.4801L9.81523 13.0522L9.24823 14.5265H8.42859L8.03905 12.9213L9.17141 11.7764H8.64895L9.81727 10.9626L10.9477 11.7764H10.3078L11.6022 12.9213ZM11.9984 11.7764H11.1784L10.7889 10.1712L11.9213 9.02643H11.3991L12.5674 8.2126L13.6979 9.02643H13.0577L14.352 10.1712L13.9148 11.7764H13.2303L12.5654 10.3022L11.9984 11.7764ZM8.41481 11.7764L8.85198 10.1712L7.55765 9.02643H8.19785L7.06742 8.2126L5.89909 9.02643H6.42124L5.28888 10.1712L5.67842 11.7764H6.49837L7.06538 10.3022L7.73024 11.7764H8.41481ZM17.1019 7.42123L16.6647 9.02643H15.9801L15.3153 7.55216L14.7483 9.02643H13.9286L13.5391 7.42123L14.6714 6.27641H14.1492L15.3173 5.46274L16.4475 6.27641H15.8075L17.1019 7.42123ZM10.9475 6.27641L9.81727 5.46274L8.64918 6.27641H9.17141L8.03905 7.42123L8.42859 9.02643H9.24823L9.81523 7.55216L10.4801 9.02643H11.165L11.6022 7.42123L10.3078 6.27641H10.9475Z" fill="#F7FCFF"/>
</g>
</svg>
