<svg width="44" height="34" viewBox="0 0 44 34" fill="none" xmlns="http://www.w3.org/2000/svg">
<mask id="mask0_26_1230" style="mask-type:alpha" maskUnits="userSpaceOnUse" x="0" y="0" width="44" height="34">
<rect y="0.5" width="44" height="33" fill="white"/>
</mask>
<g mask="url(#mask0_26_1230)">
<path fill-rule="evenodd" clip-rule="evenodd" d="M0 0.5V33.5H44V0.5H0Z" fill="#FFB400"/>
<mask id="mask1_26_1230" style="mask-type:alpha" maskUnits="userSpaceOnUse" x="0" y="0" width="44" height="34">
<path fill-rule="evenodd" clip-rule="evenodd" d="M0 0.5V33.5H44V0.5H0Z" fill="white"/>
</mask>
<g mask="url(#mask1_26_1230)">
<path fill-rule="evenodd" clip-rule="evenodd" d="M0 0.5V8.75H44V0.5H0Z" fill="#C51918"/>
<path fill-rule="evenodd" clip-rule="evenodd" d="M0 25.25V33.5H44V25.25H0Z" fill="#C51918"/>
<rect x="6.88574" y="14.624" width="1.54" height="8.008" fill="#F1F9FF"/>
<path fill-rule="evenodd" clip-rule="evenodd" d="M9.04153 13.2383H6.26953V14.0083H6.73139V14.6244H8.57939V14.0083H9.04153V13.2383Z" fill="#C88A02"/>
<path fill-rule="evenodd" clip-rule="evenodd" d="M8.57953 23.0943H9.04153V23.8643H6.26953V23.0943H6.73153V22.4783H8.57953V23.0943Z" fill="#C88A02"/>
<path fill-rule="evenodd" clip-rule="evenodd" d="M7.65612 13.3922C7.99126 13.3922 8.02532 13.266 8.22304 13.0776C8.37656 12.9312 8.73412 12.7497 8.73412 12.5452C8.73412 12.0775 8.25149 11.6982 7.65612 11.6982C7.06076 11.6982 6.57812 12.0775 6.57812 12.5452C6.57812 12.773 6.82436 12.9253 7.01054 13.0776C7.20669 13.238 7.35068 13.3922 7.65612 13.3922Z" fill="#AD1619"/>
<path fill-rule="evenodd" clip-rule="evenodd" d="M6.26953 23.864H9.04153V25.096C9.04153 25.096 8.69503 24.942 8.34853 24.942C8.00203 24.942 7.65553 25.096 7.65553 25.096C7.65553 25.096 7.30903 24.942 6.96253 24.942C6.61603 24.942 6.26953 25.096 6.26953 25.096V23.864Z" fill="#005BBF"/>
<mask id="mask2_26_1230" style="mask-type:alpha" maskUnits="userSpaceOnUse" x="6" y="23" width="4" height="3">
<path fill-rule="evenodd" clip-rule="evenodd" d="M6.26953 23.864H9.04153V25.096C9.04153 25.096 8.69503 24.942 8.34853 24.942C8.00203 24.942 7.65553 25.096 7.65553 25.096C7.65553 25.096 7.30903 24.942 6.96253 24.942C6.61603 24.942 6.26953 25.096 6.26953 25.096V23.864Z" fill="white"/>
</mask>
<g mask="url(#mask2_26_1230)">
</g>
<rect x="21.9775" y="14.624" width="1.54" height="8.008" fill="#F1F9FF"/>
<path fill-rule="evenodd" clip-rule="evenodd" d="M24.1333 13.2383H21.3613V14.0083H21.823V14.6243H23.6711V14.0083H24.1333V13.2383Z" fill="#C88A02"/>
<path fill-rule="evenodd" clip-rule="evenodd" d="M23.6713 23.0943H24.1333V23.8643H21.3613V23.0943H21.8233V22.4783H23.6713V23.0943Z" fill="#C88A02"/>
<path fill-rule="evenodd" clip-rule="evenodd" d="M22.7479 13.3922C23.0831 13.3922 23.1171 13.266 23.3148 13.0776C23.4684 12.9312 23.8259 12.7497 23.8259 12.5452C23.8259 12.0775 23.3433 11.6982 22.7479 11.6982C22.1526 11.6982 21.6699 12.0775 21.6699 12.5452C21.6699 12.773 21.9162 12.9253 22.1023 13.0776C22.2985 13.238 22.4425 13.3922 22.7479 13.3922Z" fill="#AD1619"/>
<path fill-rule="evenodd" clip-rule="evenodd" d="M21.3613 23.864H24.1333V25.096C24.1333 25.096 23.7868 24.942 23.4403 24.942C23.0938 24.942 22.7473 25.096 22.7473 25.096C22.7473 25.096 22.4008 24.942 22.0543 24.942C21.7078 24.942 21.3613 25.096 21.3613 25.096V23.864Z" fill="#005BBF"/>
<mask id="mask3_26_1230" style="mask-type:alpha" maskUnits="userSpaceOnUse" x="21" y="23" width="4" height="3">
<path fill-rule="evenodd" clip-rule="evenodd" d="M21.3613 23.864H24.1333V25.096C24.1333 25.096 23.7868 24.942 23.4403 24.942C23.0938 24.942 22.7473 25.096 22.7473 25.096C22.7473 25.096 22.4008 24.942 22.0543 24.942C21.7078 24.942 21.3613 25.096 21.3613 25.096V23.864Z" fill="white"/>
</mask>
<g mask="url(#mask3_26_1230)">
</g>
<path fill-rule="evenodd" clip-rule="evenodd" d="M22.9705 21.0918C22.9705 21.417 23.1258 21.7232 23.4034 22.0598L24.3491 21.2799L24.4394 21.2522L24.4897 20.8581C24.5827 20.13 24.2715 19.7268 23.6304 19.4352L23.5863 19.4158L23.5862 19.4158C23.4983 19.3772 23.3066 19.293 23.2419 19.262C23.1065 19.1971 22.9949 19.1327 22.8907 19.057C22.788 18.9823 22.6778 18.9118 22.5448 18.8347C23.3383 18.7072 23.767 18.6132 24.0959 18.4715C24.8831 18.1323 24.9846 17.3448 24.228 16.8238C23.1966 16.1135 20.4354 16.0496 19.2236 16.6753L19.7888 17.77C20.3835 17.4629 21.7354 17.405 22.6822 17.5626C22.5382 17.5877 22.3768 17.6142 22.1958 17.6427C22.1108 17.656 21.8636 17.6942 21.7342 17.7142L21.7331 17.7144L21.6549 17.7265C21.2768 17.7853 21.0188 17.86 20.8276 17.9901C20.4374 18.2558 20.3796 18.7345 20.658 19.0876C20.7756 19.2367 20.9293 19.3482 21.1619 19.4831C21.2366 19.5264 21.3169 19.5705 21.4248 19.6281L21.4812 19.6581C21.5476 19.6933 21.6514 19.7484 21.6898 19.769C21.9118 19.8882 22.0574 19.9743 22.1661 20.0533C22.3364 20.1772 22.511 20.2778 22.7092 20.3729C22.8158 20.424 23.1221 20.5575 23.1204 20.5567L23.1385 20.5649C23.0316 20.7096 22.9705 20.8867 22.9705 21.0918ZM6.85829 22.06C7.13594 21.7233 7.2912 21.4171 7.2912 21.0919C7.2912 20.8868 7.23017 20.7097 7.12325 20.565L7.14132 20.5568C7.13966 20.5576 7.44591 20.4241 7.55253 20.373C7.75074 20.2779 7.92536 20.1773 8.09562 20.0534C8.20431 19.9744 8.34995 19.8883 8.57196 19.7691C8.61025 19.7485 8.71386 19.6935 8.7802 19.6583L8.78031 19.6583L8.78064 19.6581L8.83692 19.6282C8.94482 19.5706 9.02517 19.5265 9.09982 19.4832C9.33242 19.3483 9.48614 19.2368 9.60371 19.0877C9.88217 18.7346 9.82436 18.2559 9.43414 17.9902C9.24296 17.8601 8.98498 17.7854 8.60681 17.7266L8.52869 17.7145L8.52853 17.7145L8.52828 17.7144C8.39901 17.6945 8.15112 17.6561 8.06594 17.6428C7.88498 17.6143 7.72351 17.5878 7.57953 17.5627C8.52631 17.4051 9.87827 17.463 10.4729 17.7701L11.0382 16.6754C9.8263 16.0497 7.06512 16.1136 6.03369 16.8239C5.27717 17.3449 5.37869 18.1324 6.16581 18.4716C6.49471 18.6133 6.92348 18.7073 7.71692 18.8348C7.58396 18.9119 7.47372 18.9824 7.37101 19.0571C7.26684 19.1328 7.15524 19.1972 7.01987 19.2621C6.95516 19.2931 6.76357 19.3772 6.67565 19.4158L6.6756 19.4158L6.67553 19.4159L6.63136 19.4353C5.99022 19.7269 5.67906 20.1301 5.77204 20.8582L5.82237 21.2523L5.91266 21.28L6.85829 22.06ZM6.06634 21.0415L6.06439 21.0472L6.06588 21.0432L6.06634 21.0415Z" fill="#AD1619"/>
<path d="M8.14436 17.5503L8.59891 17.6443V18.3218C8.11478 18.7081 6.88574 19.3592 6.88574 19.3592V17.5503H8.14436Z" fill="#F1F9FF"/>
<path d="M22.4328 17.5503L21.9782 17.6443V18.3218C22.4624 18.7081 23.6914 19.3592 23.6914 19.3592V17.5503H22.4328Z" fill="#F1F9FF"/>
<path fill-rule="evenodd" clip-rule="evenodd" d="M20.3161 10.4084V10.183C19.524 9.61447 18.6945 9.33023 17.8276 9.33023C16.9967 8.96251 16.1556 8.81974 15.3044 8.9019C15.3047 8.89937 15.3048 8.89809 15.3048 8.89809C14.0247 8.77283 12.7346 9.33033 12.7346 9.33033C11.4343 9.33033 10.2461 10.1831 10.2461 10.1831V10.4085L11.7993 11.9685C11.7993 11.9685 12.2363 13.4694 15.2964 13.1174C15.2975 13.1197 15.298 13.1208 15.298 13.1208C15.298 13.1208 17.3252 13.0655 17.4677 13.0181C17.5242 12.9993 17.5828 12.9822 17.6427 12.9647C18.0398 12.8488 18.4931 12.7165 18.7629 11.9684L20.3161 10.4084ZM15.2968 8.99019C15.2905 9.06506 15.2808 9.18254 15.2695 9.33126C15.2838 9.22299 15.2936 9.10962 15.2968 8.99019Z" fill="#AD1619"/>
<path fill-rule="evenodd" clip-rule="evenodd" d="M10.3389 10.6732L10.4444 10.561L11.8547 11.8879C12.1232 11.8158 13.5761 11.4457 15.1988 11.4275V11.4268L15.2604 11.427L15.322 11.4268V11.4275C17.1205 11.4476 18.7104 11.9001 18.7104 11.9001C18.7104 11.9001 18.6934 12.0456 18.6521 12.2169C18.6958 12.1272 18.7476 12.0276 18.8075 11.9177L18.8223 11.8985L20.2439 10.5611L20.3494 10.6732L18.9369 12.0022C18.7308 12.3817 18.627 12.6322 18.627 12.7363C18.627 12.895 18.214 12.9893 17.4078 13.0861C16.7763 13.1619 16.0311 13.2128 15.4214 13.2204V13.2214L15.3456 13.2211L15.2668 13.2214V13.2204C14.6572 13.2128 13.9119 13.1619 13.2804 13.086C12.4743 12.9893 12.0613 12.895 12.0613 12.7363C12.0613 12.7167 12.0576 12.692 12.0503 12.6623C11.9686 12.5585 11.9112 12.3881 11.8731 12.2348C11.8375 12.1637 11.797 12.0861 11.7514 12.0022L10.3389 10.6732ZM18.2222 12.7394C18.33 12.7898 18.4164 12.7396 18.4848 12.6431C18.4789 12.6697 18.4752 12.6937 18.4737 12.7152C18.4647 12.7211 18.4509 12.7282 18.4327 12.7359C18.382 12.7572 18.3045 12.7799 18.2037 12.8029C18.0056 12.8481 17.7237 12.893 17.3895 12.9332C16.7375 13.0114 15.9622 13.063 15.3456 13.0671C14.7285 13.0631 13.9518 13.0116 13.2988 12.9331C12.9646 12.893 12.6826 12.8481 12.4845 12.8029C12.4001 12.7836 12.332 12.7645 12.2823 12.7463C12.2876 12.7443 12.2931 12.7419 12.2986 12.7394C12.635 12.5819 14.8603 12.4342 15.2604 12.4087C15.6605 12.4342 17.8858 12.5819 18.2222 12.7394ZM18.6465 12.7112C18.646 12.7116 18.6453 12.7124 18.6445 12.7135L18.6456 12.7119L18.6465 12.7112Z" fill="#C88A02"/>
<path fill-rule="evenodd" clip-rule="evenodd" d="M15.2784 7.85247C15.5336 7.85247 15.7404 7.64562 15.7404 7.39047C15.7404 7.13531 15.5336 6.92847 15.2784 6.92847C15.0233 6.92847 14.8164 7.13531 14.8164 7.39047C14.8164 7.64562 15.0233 7.85247 15.2784 7.85247Z" fill="#005BBF"/>
<path fill-rule="evenodd" clip-rule="evenodd" d="M15.1064 6.10571H15.4272V6.30837H15.6369V6.6292H15.4272V7.27084H15.6369V7.59167H14.8936V7.27084H15.1064V6.6292H14.8936V6.30837H15.1064V6.10571Z" fill="#C88A02"/>
<rect x="15.0479" y="7.84814" width="0.616001" height="2.002" fill="#C88A02"/>
<path d="M10.5979 10.5334L9.75195 10.5016C10.1511 8.1949 12.1167 7.0647 15.2578 7.0647C18.403 7.0647 20.3617 8.19979 20.7308 10.5151L19.5867 10.6351C19.4071 9.50838 17.5199 8.48876 15.2744 8.48876C13.0247 8.48876 10.7943 9.39814 10.5979 10.5334Z" fill="#C88A02"/>
<path opacity="0.3" fill-rule="evenodd" clip-rule="evenodd" d="M10.2734 13.2383H20.2834V22.2319C20.2834 22.2319 19.5399 25.2503 15.2784 25.2503C11.017 25.2503 10.2734 22.1523 10.2734 22.1523V13.2383Z" fill="#E1E5E8"/>
<mask id="mask4_26_1230" style="mask-type:alpha" maskUnits="userSpaceOnUse" x="10" y="13" width="11" height="13">
<path fill-rule="evenodd" clip-rule="evenodd" d="M10.2734 13.2383H20.2834V22.2319C20.2834 22.2319 19.5399 25.2503 15.2784 25.2503C11.017 25.2503 10.2734 22.1523 10.2734 22.1523V13.2383Z" fill="white"/>
</mask>
<g mask="url(#mask4_26_1230)">
<rect x="10.2734" y="18.7822" width="5.082" height="6.006" fill="#FFC034"/>
<rect x="10.2734" y="13.0842" width="5.082" height="5.852" fill="#AD1619"/>
<rect x="15.2012" y="18.6282" width="5.082" height="5.852" fill="#AD1619"/>
<rect x="15.2012" y="13.2383" width="5.39" height="5.698" fill="#F1F9FF"/>
<path fill-rule="evenodd" clip-rule="evenodd" d="M18.5376 24.484C18.5376 24.484 15.2758 24.7404 15.2758 22.6367C15.2758 22.6367 15.2447 24.484 11.8389 24.484V26.1447H18.5376V24.484Z" fill="#F1F9FF"/>
<path fill-rule="evenodd" clip-rule="evenodd" d="M15.278 20.0143C15.9159 20.0143 16.433 19.4627 16.433 18.7823C16.433 18.1019 15.9159 17.5503 15.278 17.5503C14.6402 17.5503 14.123 18.1019 14.123 18.7823C14.123 19.4627 14.6402 20.0143 15.278 20.0143Z" fill="#005BBF" stroke="#AD1619" stroke-width="1.06787"/>
</g>
<path fill-rule="evenodd" clip-rule="evenodd" d="M12.375 17.0002C13.1344 17.0002 13.75 16.3846 13.75 15.6252C13.75 14.8659 13.1344 14.2502 12.375 14.2502C11.6156 14.2502 11 14.8659 11 15.6252C11 16.3846 11.6156 17.0002 12.375 17.0002Z" fill="#C88A02"/>
<path fill-rule="evenodd" clip-rule="evenodd" d="M17.875 17.0002C18.6344 17.0002 19.25 16.3846 19.25 15.6252C19.25 14.8659 18.6344 14.2502 17.875 14.2502C17.1156 14.2502 16.5 14.8659 16.5 15.6252C16.5 16.3846 17.1156 17.0002 17.875 17.0002Z" fill="#C37C9C"/>
<path fill-rule="evenodd" clip-rule="evenodd" d="M17.875 22.5C18.6344 22.5 19.25 21.8844 19.25 21.125C19.25 20.3656 18.6344 19.75 17.875 19.75C17.1156 19.75 16.5 20.3656 16.5 21.125C16.5 21.8844 17.1156 22.5 17.875 22.5Z" fill="#FFC034"/>
<path d="M12.375 22.5C13.1344 22.5 13.75 21.8844 13.75 21.125C13.75 20.3656 13.1344 19.75 12.375 19.75C11.6156 19.75 11 20.3656 11 21.125C11 21.8844 11.6156 22.5 12.375 22.5Z" fill="#AD1619"/>
</g>
</g>
</svg>
