<svg width="33" height="32" viewBox="0 0 33 32" fill="none" xmlns="http://www.w3.org/2000/svg">
<path d="M15.8625 11.5539C13.7994 11.5539 12.1158 13.2523 12.1158 15.3333C12.1158 17.4144 13.7994 19.1127 15.8625 19.1127C17.9256 19.1127 19.6092 17.4144 19.6092 15.3333C19.6092 13.2523 17.9256 11.5539 15.8625 11.5539ZM27.0999 15.3333C27.0999 13.7683 27.114 12.2174 27.0268 10.6552C26.9397 8.84061 26.5293 7.23019 25.2139 5.9033C23.8956 4.57356 22.3019 4.16245 20.5031 4.07456C18.9515 3.98667 17.414 4.00084 15.8653 4.00084C14.3138 4.00084 12.7763 3.98667 11.2276 4.07456C9.42868 4.16245 7.83217 4.5764 6.51674 5.9033C5.19849 7.23303 4.79093 8.84061 4.7038 10.6552C4.61667 12.2202 4.63072 13.7711 4.63072 15.3333C4.63072 16.8956 4.61667 18.4493 4.7038 20.0115C4.79093 21.8261 5.2013 23.4365 6.51674 24.7634C7.83498 26.0931 9.42868 26.5042 11.2276 26.5921C12.7791 26.68 14.3166 26.6658 15.8653 26.6658C17.4168 26.6658 18.9543 26.68 20.5031 26.5921C22.3019 26.5042 23.8985 26.0903 25.2139 24.7634C26.5321 23.4336 26.9397 21.8261 27.0268 20.0115C27.1168 18.4493 27.0999 16.8984 27.0999 15.3333ZM15.8625 21.1484C12.6723 21.1484 10.0976 18.5513 10.0976 15.3333C10.0976 12.1153 12.6723 9.51824 15.8625 9.51824C19.0527 9.51824 21.6274 12.1153 21.6274 15.3333C21.6274 18.5513 19.0527 21.1484 15.8625 21.1484ZM21.8635 10.6382C21.1186 10.6382 20.5171 10.0314 20.5171 9.28008C20.5171 8.52874 21.1186 7.92199 21.8635 7.92199C22.6083 7.92199 23.2098 8.52874 23.2098 9.28008C23.21 9.45849 23.1754 9.63519 23.1078 9.80006C23.0402 9.96493 22.941 10.1147 22.816 10.2409C22.6909 10.367 22.5424 10.4671 22.379 10.5352C22.2155 10.6034 22.0403 10.6384 21.8635 10.6382Z" fill="#6DACF6"/>
</svg>
